<?xml version="1.0" encoding="UTF-8"?>
<svg width="313px" height="128px" viewBox="0 0 313 128" version="1.1" xmlns="http://www.w3.org/2000/svg" xmlns:xlink="http://www.w3.org/1999/xlink">
    <!-- Generator: Sketch 54.1 (76490) - https://sketchapp.com -->
    <title>Artboard</title>
    <desc>Created with Sketch.</desc>
    <g id="Artboard" stroke="none" stroke-width="1" fill="none" fill-rule="evenodd">
        <g id="Group-14" transform="translate(39.395826, 63.984283) rotate(30.000000) translate(-39.395826, -63.984283) translate(6.895826, 13.484283)" fill="white">
            <path d="M32.1563893,41.074615 C37.9625941,41.0733184 42.1619855,36.1213881 41.0524986,30.5845727 C40.280345,26.7311025 36.7824292,23.8823092 32.5244023,23.6388472 C27.4857634,23.3507265 23.1692444,27.3103692 23.0942655,32.2892388 C23.021007,37.1535805 27.0668565,41.0757675 32.1563893,41.074615 M53.3589288,42.5302007 C53.3589288,43.4418146 53.398067,44.3557334 53.3444492,45.264178 C53.311619,45.8198187 53.4472405,46.1852998 53.9032785,46.5365189 C55.7800446,47.9813002 57.6474921,49.4404874 59.473651,50.9487992 C63.4277482,54.2142151 64.9615898,58.3859146 63.9356836,63.4464664 C62.9585208,68.2665816 61.833694,73.0591811 60.974089,77.8998969 C60.4205642,81.0159222 56.3430314,82.4666099 53.8885121,80.3555496 C50.6229878,77.5470931 47.2414828,74.8747737 43.9276452,72.1225008 C43.5166232,71.7810778 43.2762033,71.7812218 42.8626008,72.1298479 C36.4955597,77.4952314 28.0457396,77.5551605 21.6361196,72.2671374 C21.1270373,71.8472015 20.8460457,71.9218247 20.3924449,72.2868736 C17.5763639,74.5520785 14.8776972,76.9573101 12.1072057,79.2763935 C11.5941092,79.7058374 11.0939154,80.1615003 10.5360897,80.5245323 C7.93189929,82.2191142 4.66164403,80.905572 3.94984633,77.8764151 C2.80853284,73.018268 1.63739983,68.1660274 0.578663471,63.2894407 C-0.493692379,58.3497554 1.04373331,54.2381291 4.85188684,51.0005169 C6.67388825,49.4512919 8.59351991,48.0170271 10.4872029,46.5545265 C10.8484778,46.2756257 11.0097613,45.9913946 10.9849595,45.5306896 C10.3990346,34.6486592 13.4159672,24.7018685 18.8165979,15.3965786 C21.4250892,10.9020398 24.4550679,6.71651054 28.2478816,3.13502627 C29.2769418,2.16333924 30.4188287,1.33556849 31.5951228,0.548854938 C32.0329537,0.256124314 32.3338728,0.30856228 32.7433177,0.566142179 C35.6401121,2.3883615 37.9581498,4.8264388 40.0760526,7.47815759 C44.8463158,13.4504674 48.5177009,20.0302796 50.8867759,27.3226143 C52.4914388,32.2621555 53.3893218,37.3237157 53.3589288,42.5302007" id="Fill-6"></path>
            <path d="M25.8399127,90.8372601 C25.050244,91.6172491 24.2955177,92.3504447 23.5545136,93.0985493 C22.8594863,93.8003033 22.0781642,94.0375179 21.1652777,93.6275956 C20.2356982,93.210145 19.8363369,92.4716353 19.8446835,91.4125094 C19.867884,88.4370666 19.846664,85.4613287 19.8548691,82.4857384 C19.8599619,80.6435235 21.4418457,79.6471332 23.0477789,80.4203321 C28.8685794,83.2221815 34.7074876,83.2466853 40.541586,80.4662398 C42.3169966,79.6202676 43.8263078,80.567355 43.8304104,82.5799157 C43.8364935,85.5553584 43.8185272,88.5310964 43.8444156,91.5063915 C43.8531866,92.5175431 43.4494398,93.2027643 42.5871985,93.605306 C41.7200059,94.0100619 40.9375521,93.8584629 40.2463444,93.1713227 C39.6325191,92.5609414 38.9790831,91.9902681 38.4009076,91.3454929 C37.9876825,90.8850868 37.8000973,90.8393266 37.4958018,91.4644693 C36.291069,93.9400931 35.0233834,96.3822087 33.8069088,98.8517804 C33.3846298,99.7091189 32.7586384,100.155797 31.8450447,100.156387 C30.9263581,100.156978 30.3060254,99.6872721 29.8864343,98.8395285 C28.6974043,96.4374161 27.4847493,94.0481461 26.2794506,91.6550381 C26.1494425,91.3967147 26.0061364,91.1456244 25.8399127,90.8372601" id="Fill-8"></path>
            <path d="M32.3582619,36.1050097 C29.8951322,36.0889894 27.8863775,34.3004988 27.892318,32.1285968 C27.8984034,29.8722851 29.9365708,28.0762556 32.4578014,28.1054691 C34.9077461,28.133875 36.8936082,29.9316546 36.8923042,32.1201155 C36.8911451,34.3239235 34.846023,36.1211647 32.3582619,36.1050097" id="Fill-12"></path>
        </g>
        <text id="MER(A)N" font-family="Avenir-Black, Avenir" font-size="50" font-weight="700" fill="#0090FF">
            <tspan x="92.35" y="80">MER(A)N</tspan>
        </text>
    </g>
</svg>