<svg id="alert-circle-outline" xmlns="http://www.w3.org/2000/svg" width="24" height="24" viewBox="0 0 24 24">
  <g id="alert-circle">
    <rect id="Rectangle_13484" data-name="Rectangle 13484" width="24" height="24" fill="#fff" opacity="0"/>
    <path id="Path_55162" data-name="Path 55162" d="M12,2A10,10,0,1,0,22,12,10,10,0,0,0,12,2Zm0,18a8,8,0,1,1,8-8A8,8,0,0,1,12,20Z" fill="#fff"/>
    <circle id="Ellipse_3597" data-name="Ellipse 3597" cx="1" cy="1" r="1" transform="translate(11 15)" fill="#fff"/>
    <path id="Path_55163" data-name="Path 55163" d="M12,7a1,1,0,0,0-1,1v5a1,1,0,0,0,2,0V8A1,1,0,0,0,12,7Z" fill="#fff"/>
  </g>
</svg>
